<?xml version="1.0" encoding="UTF-8"?>
<svg id="Layer_1" xmlns="http://www.w3.org/2000/svg" xmlns:xlink="http://www.w3.org/1999/xlink" viewBox="0 0 82.63 83.16">
  <defs>
    <style>
      .cls-1, .cls-2, .cls-3, .cls-4, .cls-5, .cls-6, .cls-7 {
        fill: none;
      }

      .cls-8 {
        font-size: 6px;
      }

      .cls-8, .cls-9 {
        fill: #231f20;
        font-family: SFPro-Bold, 'SF Pro';
        font-variation-settings: 'opsz' 28, 'wght' 700;
        font-weight: 700;
      }

      .cls-10 {
        fill: #010101;
      }

      .cls-11 {
        fill: #3a53a4;
      }

      .cls-12 {
        fill: #ed2224;
      }

      .cls-2 {
        stroke: #3a53a4;
      }

      .cls-2, .cls-3, .cls-4, .cls-5, .cls-6, .cls-7 {
        stroke-miterlimit: 10;
      }

      .cls-2, .cls-4, .cls-5 {
        stroke-linecap: round;
        stroke-width: 4px;
      }

      .cls-13 {
        isolation: isolate;
      }

      .cls-14 {
        fill: #7f8080;
      }

      .cls-15 {
        clip-path: url(#clippath-1);
      }

      .cls-16 {
        clip-path: url(#clippath-3);
      }

      .cls-17 {
        clip-path: url(#clippath-4);
      }

      .cls-18 {
        clip-path: url(#clippath-2);
      }

      .cls-9 {
        font-size: 10.63px;
      }

      .cls-3 {
        stroke-width: .98px;
      }

      .cls-3, .cls-6, .cls-7 {
        stroke: #010101;
      }

      .cls-4 {
        stroke: #ed2224;
      }

      .cls-5 {
        stroke: #6abd45;
      }

      .cls-6 {
        stroke-width: 2.85px;
      }

      .cls-7 {
        stroke-width: 2.44px;
      }

      .cls-19 {
        fill: #6abd45;
      }

      .cls-20 {
        clip-path: url(#clippath);
      }
    </style>
    <clipPath id="clippath">
      <rect class="cls-1" x="28.65" y="18.5" width="24.39" height="24.39"/>
    </clipPath>
    <clipPath id="clippath-1">
      <rect class="cls-1" x="28.65" y="18.5" width="24.39" height="24.39"/>
    </clipPath>
    <clipPath id="clippath-2">
      <polygon class="cls-1" points="48.44 29.29 46.14 31.59 43.84 33.89 46.14 36.18 48.44 33.89 50.74 36.18 53.04 33.89 50.74 31.59 48.44 29.29"/>
    </clipPath>
    <clipPath id="clippath-3">
      <rect class="cls-1" x="28.65" y="18.5" width="24.39" height="24.39"/>
    </clipPath>
    <clipPath id="clippath-4">
      <rect class="cls-1" x="28.65" y="18.5" width="24.39" height="24.39"/>
    </clipPath>
  </defs>
  <g class="cls-13">
    <g class="cls-20">
      <g class="cls-15">
        <rect class="cls-14" x="41.37" y="18.74" width="2.76" height="4.8"/>
        <rect class="cls-14" x="35.4" y="20.77" width="14.71" height="2.76"/>
        <rect class="cls-14" x="35.4" y="20.77" width="2.76" height="4.06"/>
        <rect class="cls-14" x="47.35" y="20.77" width="2.76" height="7.32"/>
        <rect class="cls-14" x="45.64" y="25.32" width="6.18" height="2.76"/>
        <rect class="cls-12" x="34.18" y="29.06" width="5.2" height="3.33"/>
        <rect class="cls-12" x="35.4" y="24.84" width="2.76" height="2.76"/>
        <rect class="cls-19" x="45.64" y="28.09" width="2.76" height="2.76"/>
        <rect class="cls-11" x="49.05" y="28.09" width="2.76" height="2.76"/>
        <circle class="cls-6" cx="36.78" cy="33.13" r="5.49"/>
        <line class="cls-10" x1="41.25" y1="37.6" x2="44.91" y2="41.66"/>
        <line class="cls-7" x1="41.25" y1="37.6" x2="44.91" y2="41.66"/>
      </g>
      <g class="cls-18">
        <g class="cls-16">
          <circle class="cls-3" cx="48.57" cy="33.94" r="1.95"/>
        </g>
      </g>
      <g class="cls-17">
        <line class="cls-10" x1="49.95" y1="35.32" x2="46.53" y2="38.74"/>
        <line class="cls-3" x1="49.95" y1="35.32" x2="46.53" y2="38.74"/>
        <line class="cls-3" x1="46.21" y1="38.82" x2="51" y2="38.82"/>
      </g>
    </g>
  </g>
  <g>
    <text class="cls-8" transform="translate(35.92 7.06) rotate(-5.66)"><tspan x="0" y="0">b</tspan></text>
    <text class="cls-8" transform="translate(39.87 6.73) rotate(-.96)"><tspan x="0" y="0">i</tspan></text>
    <text class="cls-8" transform="translate(41.68 6.67) rotate(3.58)"><tspan x="0" y="0">n</tspan></text>
    <text class="cls-8" transform="translate(45.48 6.93) rotate(9.81)"><tspan x="0" y="0">n</tspan></text>
    <text class="cls-8" transform="translate(49.25 7.63) rotate(14.47)"><tspan x="0" y="0">i</tspan></text>
    <text class="cls-8" transform="translate(51.01 8.06) rotate(19.14)"><tspan x="0" y="0">n</tspan></text>
    <text class="cls-8" transform="translate(54.59 9.32) rotate(25.49)"><tspan x="0" y="0">g</tspan></text>
    <text class="cls-8" transform="translate(8.72 54.54) rotate(-109)"><tspan x="0" y="0">a</tspan></text>
    <text class="cls-8" transform="translate(7.55 51.09) rotate(-103.15)"><tspan x="0" y="0">s</tspan></text>
    <text class="cls-8" transform="translate(6.79 47.74) rotate(-97.49)"><tspan x="0" y="0">s</tspan></text>
    <text class="cls-8" transform="translate(6.35 44.33) rotate(-91.68)"><tspan x="0" y="0">e</tspan></text>
    <text class="cls-8" transform="translate(6.2 40.66) rotate(-84.25)"><tspan x="0" y="0">m</tspan></text>
    <text class="cls-8" transform="translate(6.83 35.2) rotate(-76.53)"><tspan x="0" y="0">b</tspan></text>
    <text class="cls-8" transform="translate(7.8 31.39) rotate(-71.78)"><tspan x="0" y="0">l</tspan></text>
    <text class="cls-8" transform="translate(8.36 29.63) rotate(-67.28)"><tspan x="0" y="0">y</tspan></text>
    <text class="cls-8" transform="translate(74.23 53.58) rotate(112.86)"><tspan x="0" y="0">a</tspan></text>
    <text class="cls-8" transform="translate(72.81 56.92) rotate(118.95)"><tspan x="0" y="0">n</tspan></text>
    <text class="cls-8" transform="translate(70.95 60.24) rotate(125.16)"><tspan x="0" y="0">n</tspan></text>
    <text class="cls-8" transform="translate(68.74 63.34) rotate(131.35)"><tspan x="0" y="0">o</tspan></text>
    <text class="cls-8" transform="translate(66.2 66.16) rotate(136.48)"><tspan x="0" y="0">t</tspan></text>
    <text class="cls-8" transform="translate(64.42 67.87) rotate(141.46)"><tspan x="0" y="0">a</tspan></text>
    <text class="cls-8" transform="translate(61.54 70.09) rotate(145.92)"><tspan x="0" y="0">i</tspan></text>
    <text class="cls-8" transform="translate(60.01 71.13) rotate(149.54)"><tspan x="0" y="0">t</tspan></text>
    <text class="cls-8" transform="translate(57.82 72.39) rotate(153.14)"><tspan x="0" y="0">i</tspan></text>
    <text class="cls-8" transform="translate(56.22 73.23) rotate(157.78)"><tspan x="0" y="0">o</tspan></text>
    <text class="cls-8" transform="translate(52.73 74.63) rotate(164)"><tspan x="0" y="0">n</tspan></text>
  </g>
  <g>
    <path class="cls-5" d="M24.84,15.69c4.73-2.99,10.34-4.72,16.36-4.72,4.23,0,8.26.86,11.93,2.41s6.9,3.75,9.66,6.49c.96.95,1.85,1.96,2.68,3.03"/>
    <path class="cls-4" d="M21.7,65.27c-6.81-5.62-11.15-14.13-11.15-23.65,0-9.02,3.9-17.14,10.1-22.74"/>
    <path class="cls-2" d="M70.05,31.25c1.16,3.24,1.8,6.73,1.8,10.37,0,16.93-13.72,30.65-30.65,30.65-5.55,0-10.76-1.48-15.26-4.06"/>
  </g>
  <text class="cls-9" transform="translate(17.5 52.95)"><tspan x="0" y="0">MOSHPIT</tspan></text>
</svg>